<svg width="25" height="26" viewBox="0 0 25 26" fill="none" xmlns="http://www.w3.org/2000/svg">
<path d="M12.5 4.40625C9.48792 4.40625 7.03125 6.86291 7.03125 9.875C7.03125 11.7579 7.99255 13.4303 9.44824 14.416C6.66199 15.6123 4.6875 18.3772 4.6875 21.5938H6.25C6.25 18.1331 9.03931 15.3438 12.5 15.3438C15.9607 15.3438 18.75 18.1331 18.75 21.5938H20.3125C20.3125 18.3772 18.338 15.6123 15.5518 14.416C17.0074 13.4303 17.9688 11.7579 17.9688 9.875C17.9688 6.86291 15.5121 4.40625 12.5 4.40625ZM12.5 5.96875C14.6667 5.96875 16.4062 7.70825 16.4062 9.875C16.4062 12.0417 14.6667 13.7812 12.5 13.7812C10.3333 13.7812 8.59375 12.0417 8.59375 9.875C8.59375 7.70825 10.3333 5.96875 12.5 5.96875Z" fill="black"/>
</svg>
