<svg width="25" height="26" viewBox="0 0 25 26" fill="none" xmlns="http://www.w3.org/2000/svg">
<path d="M12.5 6.75C5.98755 6.75 0.976562 12.4873 0.976562 12.4873L0.512695 13L0.976562 13.5127C0.976562 13.5127 5.54504 18.722 11.6211 19.2012C11.911 19.2378 12.2009 19.25 12.5 19.25C12.7991 19.25 13.089 19.2378 13.3789 19.2012C19.455 18.722 24.0234 13.5127 24.0234 13.5127L24.4873 13L24.0234 12.4873C24.0234 12.4873 19.0125 6.75 12.5 6.75ZM12.5 8.3125C14.2212 8.3125 15.8081 8.78247 17.1875 9.41113C17.6849 10.2351 17.9688 11.1842 17.9688 12.2188C17.9688 15.0416 15.8508 17.361 13.1104 17.6631C13.0951 17.6661 13.0768 17.66 13.0615 17.6631C12.8754 17.6722 12.6892 17.6875 12.5 17.6875C12.2925 17.6875 12.0911 17.6753 11.8896 17.6631C9.14917 17.361 7.03125 15.0416 7.03125 12.2188C7.03125 11.1995 7.30591 10.2504 7.78809 9.43555H7.76367C9.15527 8.79468 10.7605 8.3125 12.5 8.3125ZM12.5 9.875C11.2061 9.875 10.1562 10.9248 10.1562 12.2188C10.1562 13.5127 11.2061 14.5625 12.5 14.5625C13.7939 14.5625 14.8438 13.5127 14.8438 12.2188C14.8438 10.9248 13.7939 9.875 12.5 9.875ZM5.66406 10.6074C5.54199 11.1323 5.46875 11.6603 5.46875 12.2188C5.46875 13.589 5.85938 14.8707 6.54297 15.9541C4.57458 14.8158 3.2074 13.4578 2.75879 13C3.13416 12.6155 4.18091 11.5962 5.66406 10.6074ZM19.3359 10.6074C20.8191 11.5962 21.8658 12.6155 22.2412 13C21.7926 13.4578 20.4254 14.8158 18.457 15.9541C19.1406 14.8707 19.5312 13.589 19.5312 12.2188C19.5312 11.6603 19.458 11.1262 19.3359 10.6074Z" fill="#838383"/>
</svg>
